<svg xmlns="http://www.w3.org/2000/svg" width="552.433" height="238.696" viewBox="0 0 552.433 238.696">
  <g id="Star_Wars" transform="translate(2 2.001)">
    <path id="path9" d="M104.243,226.58l7.5,22.02c4.057,11.907,7.679,21.43,8.151,21.43a.031.031,0,0,0,.021-.009c.519-.458,15.2-43.078,15.2-43.078h28.444l-34.317,99.991h-19.77s-21.1-60.946-21.015-61.177L66.423,326.165H46.852L12.968,226.579l28.306.018s15.506,43.952,15.712,43.952c0,0,0,0,0,0l15.472-43.969h31.783M3.3,219.655l3.114,9.153L40.3,328.393l1.6,4.691H71.265l1.659-4.549L88.218,286.59c1.318,3.835,2.742,7.968,4.167,12.1,5.266,15.269,10.543,30.509,10.543,30.509l1.612,4.655h29.636l1.6-4.673,34.317-99.99,3.145-9.166H130.173l-1.607,4.667c-2.572,7.468-5.986,17.324-8.9,25.665q-.66-1.9-1.372-3.988l-7.5-22.019-1.6-4.688H67.56l-1.627,4.623-9.04,25.691C53.907,241.579,50.445,231.8,47.8,224.3l-1.628-4.613-4.892,0-28.306-.018L3.3,219.655h0Z" transform="translate(-1.492 -99.197)" fill="#fff700" stroke="#000" stroke-width="4"/>
    <path id="path13" d="M788.468,225.876l-.065,26.209s-28.231-.094-42.584-.094c-4.775,0-8.013.011-8.167.039-2.473.451-4.048,5.71-3.347,8.018.345,1.168,2.933,4.981,5.734,8.484s7.386,9.237,10.188,12.738c7.195,8.978,8.181,10.75,8.846,15.905,1.081,8.372-2.879,17.435-10.23,23.411-7.367,5.993-7.044,6.036-61.734,6.036h-2.4c-33.261-.009-50.852-.285-53.413-.855-4.549-1.029-11.8-6.945-30.952-25.322-6.89-6.6-13.24-12.386-13.566-12.388-.009,0-.013,0-.013.014l-.226,38.553-31.047-.137-.191-99.439h69.239c20.868.753,34.991,21.543,32.18,34.8a39.418,39.418,0,0,1-3.616,9.686c-2.776,4.757-9.842,10.862-15.577,13.484-2.118.958-3.848,2.074-3.848,2.472,0,1.479,6.971,8.345,9.582,9.435,2.23.933,8.726,1.141,37.369,1.141l9.174,0c28.793,0,27.344-.208,29.569-4.965,1.558-3.312.373-5.293-10.585-17.634-13.881-13.812-12.428-20.428-12.523-25.315-.2-5.855,4.412-24.275,28.377-24.275l63.825,0m-186,45.94c13.292,0,15.991-.207,18.82-1.436,9.548-4.151,10.058-16.414.9-21.855-2.005-1.194-4.584-1.391-18.992-1.47l-16.673-.087c.137.13-.053,23.843-.053,23.843s4.176,1,16,1M795.4,218.957H724.642c-13.865,0-22.066,5.473-26.5,10.064a31.478,31.478,0,0,0-8.788,21.3c.007.369,0,.748,0,1.143-.063,7.2,1,15.358,14.407,28.752,2.651,2.985,7.086,7.99,8.762,10.477-3.665.451-12.955.451-22.712.451H685.66l-5.03,0c-17.214,0-31.729-.049-34.7-.636a17.057,17.057,0,0,1-1.641-1.3c5.947-3.663,11.961-9.339,14.792-14.194a46.08,46.08,0,0,0,4.409-11.734c1.764-8.324-1.146-18.366-7.784-26.869a41.308,41.308,0,0,0-30.914-16.285l-.125-.005h-76.3l.014,6.933.191,99.438.014,6.875,6.875.03,31.047.138,6.908.03.041-6.908.134-23.1q.951.9,1.962,1.872c20.952,20.1,27.985,25.667,34.215,27.076,1.711.381,4.543,1.014,54.937,1.027h2.4c27.282,0,40.976,0,49.122-.787,9.331-.9,12.332-3.018,16.831-6.681l.15-.122c9.241-7.513,14.117-18.879,12.726-29.664-.906-7.014-2.762-9.927-10.31-19.345l-2.243-2.8c-2.629-3.285-5.806-7.253-7.935-9.924-1.718-2.148-3.067-4.055-3.88-5.3,1.069,0,2.457,0,4.253,0,14.179,0,42.279.093,42.561.1l6.926.022.017-6.926.065-26.21.018-6.933h0ZM593.432,264.644c.011-1.748.022-3.708.033-5.671.009-1.73.016-3.463.019-5.051l9.675.05c5.56.03,13.926.076,15.557.539a5.834,5.834,0,0,1,3.117,5.241,4.938,4.938,0,0,1-3.3,4.282c-1.513.657-3.926.862-16.06.862-3.849,0-6.818-.112-9.037-.253h0Z" transform="translate(-247.644 -98.882)" fill="#fff700" stroke="#000" stroke-width="4"/>
    <path id="path17" d="M371.124,225.13l34.844,100.251-28.392.13-4.713-15.057-50.766-.407-4.48,15.075-28.107-.295,34.4-99.654,47.211-.043m-22.832,14.7c-.072.288-4.449,12.3-8.84,24.305-4.428,12.108-8.871,24.215-8.932,24.31,0,0,0,0,0,0h0c.118-.035,15.84-.069,25.917-.069,4.716,0,8.194.008,8.259.025a.017.017,0,0,1,0,0v0c-.176-.458-16.353-47.986-16.4-48.571a.018.018,0,0,0,0,0h0s0,0,0,0m27.751-21.622-4.924,0-47.211.044-4.926,0-1.608,4.658-34.4,99.654-3.133,9.076,9.6.1,28.107.295,5.218.055,1.487-5,3-10.086,40.521.324,3.207,10.247,1.526,4.876,5.109-.023L406,332.3l9.682-.045-3.179-9.145L377.66,222.863l-1.618-4.656h0Zm-35.565,63.256c1.31-3.571,3.075-8.4,5.472-14.952l2.07-5.66q.86,2.537,1.876,5.533c.559,1.648,3.014,8.882,5.12,15.072-6.261,0-10.975,0-14.537.007h0Z" transform="translate(-126.376 -98.543)" fill="#fff700" stroke="#000" stroke-width="4"/>
    <path id="path21" d="M256.492,6.929V31.663H206.955v75.647H177.421V31.6l-57.823.164c-6.971,0-7.9,5.552-7.9,7.68,0,2.612,1.7,5.224,11.061,17.072,6.071,7.7,11.649,15.377,12.384,17.055,4.013,9.236-1.176,23.627-10.629,29.473-6.737,4.162-5.586,4.264-55.616,4.264H6.919V79.524H91.586l2.5-1.738a7.184,7.184,0,0,0,3.036-5.007c.519-3.183.251-3.6-10.205-15.377C74.557,43.478,73.251,40.935,73.891,32.045,74.618,21.9,83.664,7.164,99.473,7.164l157.019-.234M263.411,0l-6.929.01L99.462.244a31.135,31.135,0,0,0-23.646,11,36.1,36.1,0,0,0-8.827,20.3c-.841,11.685,1.848,15.907,14.751,30.444,3.745,4.218,7.305,8.23,8.494,9.934a1.159,1.159,0,0,1-.047.138c-.013.01-.033.026-.061.045l-.711.495H0v41.624H68.895c24.667,0,36.842-.023,44.015-.549,8.207-.6,10.826-2.009,14.749-4.445l.49-.3c12.334-7.629,18.691-25.8,13.337-38.117-1.652-3.769-12.11-17.077-13.3-18.582-3.283-4.157-8.7-11.018-9.56-13a2.3,2.3,0,0,1,.1-.46,3.573,3.573,0,0,1,.866-.085l50.9-.144v75.688h43.371V38.581h49.538V0h0Z" fill="#fff700" stroke="#000" stroke-width="4"/>
    <path id="path25" d="M538.864,8.4l34.749,100.511-28.341-.156-4.6-15.057-50.54-.225-4.515,14.5H456.758L491.125,8.4h47.739m-40.484,63.67,34.421-.043s0,0,0,0c.118,0-16.728-49.469-16.84-49.5h0c-.123,0-17.97,49.546-17.582,49.546M543.793,1.483H486.2l-1.609,4.661-34.368,99.578-3.167,9.176h43.66l1.513-4.863,2.993-9.618,40.329.179,3.112,10.183,1.488,4.868,5.091.029,28.341.156,9.77.054-3.192-9.233L545.409,6.142l-1.615-4.658h0Zm-35.8,63.658c2.134-6.077,5.106-14.406,7.8-21.891,2.55,7.476,5.37,15.779,7.427,21.872l-15.223.019h0Z" transform="translate(-201.891 -0.67)" fill="#fff700" stroke="#000" stroke-width="4"/>
    <path id="path29" d="M756.97,8.4c22.417,0,37.975.32,40.967.839A29.729,29.729,0,0,1,815.8,19.81c4.9,5.933,6.028,8.769,6.668,16.9.918,11.476-4.54,21.379-15.308,27.8-3.139,1.877-6.364,3.7-7.169,4.065-1.237.562-1.071,1.1,1.142,3.693a45.5,45.5,0,0,0,5.492,5.284l2.906,2.257,53.689.77.527,27.4H830.825c-25.46,0-33.607-.234-35.994-1.038-3.572-1.211-12.167-8.493-29.639-25.115L752.721,69.962l.131,38.018H720.817V8.4H756.97m-4.72,44.772h17.012c16.554,0,17.071-.052,19.433-1.825,4.221-3.165,5.716-6.426,5.268-11.433-.458-5.163-2.447-7.853-7.438-10.015-2.811-1.228-5.518-1.427-18.785-1.427H752.25v24.7m4.72-51.691H713.9V114.9h45.9l-.024-6.943L759.7,86.148l.727.691c21.609,20.56,27.983,25.23,32.187,26.655,3.228,1.089,8.633,1.4,38.215,1.4H870.8l-.135-7.052-.527-27.4-.128-6.689-6.689-.1-51.373-.736-1.077-.836c-.342-.267-.758-.62-1.2-1.02l1.044-.62c12.975-7.743,19.775-20.243,18.654-34.293-.747-9.478-2.439-13.747-8.233-20.756A36.87,36.87,0,0,0,799.124,2.426c-4.722-.819-28.437-.942-42.154-.942h0Zm2.2,33.91h8.571c12.131,0,14.534.2,16.015.848,2.811,1.218,3.1,1.808,3.317,4.287.221,2.463-.084,3.454-2.527,5.286l-.193.144c-1.613.3-7.6.3-15.089.3H759.17V35.394h0Z" transform="translate(-322.402 -0.67)" fill="#fff700" stroke="#000" stroke-width="4"/>
  </g>
</svg>
